Coordinates
version=1
nRows=15
nColumns=34
inDegrees=yes

Units are S.I. units (second, meters, Newtons, ...)
If the header above contains a line with 'inDegrees', this indicates whether rotational values are in degrees (yes) or radians (no).

endheader
time	pelvis_tilt	pelvis_list	pelvis_rotation	pelvis_tx	pelvis_ty	pelvis_tz	hip_flexion_r	hip_adduction_r	hip_rotation_r	knee_angle_r	ankle_angle_r	subtalar_angle_r	mtp_angle_r	hip_flexion_l	hip_adduction_l	hip_rotation_l	knee_angle_l	ankle_angle_l	subtalar_angle_l	mtp_angle_l	lumbar_extension	lumbar_bending	lumbar_rotation	arm_flex_r	arm_add_r	arm_rot_r	elbow_flex_r	pro_sup_r	arm_flex_l	arm_add_l	arm_rot_l	elbow_flex_l	pro_sup_l
      9.70000000	      6.93124147	    -14.19054430	    -60.43103469	      1.64154492	      1.02762667	      4.31498190	    -30.00000025	     11.40384361	     12.77992972	      4.92587662	     24.33376359	      0.48033275	      0.00000000	    -24.15017712	      4.91495967	      4.24795634	     18.18479835	     24.52458703	     -8.13837099	      0.00000000	     -4.71631969	     -2.73506129	      0.61998844	     17.69378077	      4.60442609	     13.89783657	     18.73978460	    114.88823639	     17.08052594	      6.21198567	     37.51116907	     16.51186212	    108.92170295
      9.71666670	      7.02065822	    -13.74988249	    -59.77332155	      1.64223962	      1.02721148	      4.31559552	    -30.00000025	     11.41732561	     12.10699836	      4.19384433	     24.14652466	      0.42783743	      0.00000000	    -22.83358370	      4.27722469	      1.23179765	     19.98646362	     25.23082364	     -3.31276908	      0.00000000	     -4.44515024	     -3.09965726	     -0.25467741	     17.91040878	      4.95583206	     14.40926486	     18.74009807	    114.78280372	     17.09083694	      6.33345434	     36.82728255	     16.46079050	    108.64079654
      9.73333330	      7.23277163	    -13.29567247	    -59.63791847	      1.64310865	      1.02699495	      4.31692817	    -30.00000025	     11.02635666	     12.02994291	      3.73503243	     24.21489596	      0.40068101	      0.00000000	    -22.29944702	      4.59448981	      0.93122944	     20.42174914	     23.67370383	     -1.96563172	      0.00000000	     -4.10506253	     -3.48184823	     -0.52040035	     17.92557836	      5.16985006	     14.53784535	     18.89332742	    114.78479616	     17.08899837	      6.59636902	     36.63543529	     16.07982651	    108.56967731
      9.75000000	      7.19294525	    -12.90514309	    -59.15112281	      1.64395866	      1.02635672	      4.31851553	    -30.00000025	     11.09523676	     11.70410428	      3.12310355	     24.02581370	      0.34061538	      0.00000000	    -21.37342900	      4.05128478	     -0.88764453	     21.54840310	     23.65097390	      2.69017990	      0.00000000	     -3.71481422	     -3.62458428	     -1.05077395	     17.84444418	      5.47924198	     15.14209710	     18.85834252	    114.73834204	     16.84311499	      6.73304051	     35.26399618	     16.19399765	    108.09089747
      9.76666670	      7.18740258	    -12.62887579	    -59.12339602	      1.64457924	      1.02596873	      4.31999977	    -30.00000025	     10.95466110	     11.81158630	      2.80954100	     24.11765822	      0.46280835	      0.00000000	    -20.85542157	      4.07586280	     -1.13769675	     21.95182083	     21.99961156	      3.43578702	      0.00000000	     -3.46880257	     -3.61711997	     -0.98411891	     17.74236940	      5.67937616	     15.30026505	     18.87569678	    114.76367067	     16.81067357	      7.01727372	     35.15827775	     15.97276691	    108.05343057
      9.78333330	      7.35066780	    -12.05588611	    -59.22798994	      1.64496785	      1.02552726	      4.32272611	    -30.00000025	     10.47731446	     11.81181275	      2.23383840	     24.18173083	      0.52316715	      0.00000000	    -20.31998822	      4.25750848	     -2.35491240	     22.06659190	     20.84334892	      5.00322499	      0.00000000	     -2.72438635	     -4.08478844	     -0.85846002	     17.48272123	      5.98963379	     16.30120909	     18.88335657	    114.94729340	     16.57426767	      7.20411591	     34.41036238	     15.43701534	    107.78539400
      9.80000000	      7.38181043	    -11.89916784	    -59.04794010	      1.64523365	      1.02532992	      4.32440962	    -30.00000025	     10.49659147	     11.71589989	      2.16158014	     24.20516791	      0.52259167	      0.00000000	    -19.82544748	      4.06643985	     -3.09831969	     22.53190917	     19.23629600	      5.18573743	      0.00000000	     -2.55951650	     -4.12654993	     -1.07204542	     17.40107641	      6.28955035	     16.54643749	     18.94742938	    114.99077627	     16.41211140	      7.25503883	     34.26491016	     15.32000892	    107.72773419
      9.81666670	      7.56835301	    -11.40199837	    -58.80457377	      1.64608341	      1.02482267	      4.32686647	    -30.00000025	     10.21300778	     11.47238116	      1.73615424	     24.18729723	      0.57777275	      0.00000000	    -19.36542418	      4.11989499	     -3.92655743	     22.65057254	     17.72612605	      6.27598166	      0.00000000	     -1.90919593	     -4.60032755	     -1.23795187	     17.18216726	      6.53552706	     17.57014512	     18.86262675	    115.17716786	     16.01243203	      7.36062309	     33.55544821	     15.07674839	    107.43952779
      9.83333330	      7.48385661	    -11.33633613	    -58.68671165	      1.64645395	      1.02442428	      4.32785425	    -30.00000025	     10.32551630	     11.38043429	      1.65012468	     24.17853478	      0.60581709	      0.00000000	    -19.07205715	      3.82587473	     -4.51418512	     22.85405431	     15.90955912	      6.63146383	      0.00000000	     -1.85336636	     -4.41166655	     -1.55588726	     17.34886397	      6.77450228	     17.99138964	     18.99090694	    115.23941323	     15.86914118	      7.48653773	     33.27628613	     14.92487339	    107.31493555
      9.85000000	      7.36840693	    -11.26060500	    -58.56251860	      1.64713761	      1.02395379	      4.32872525	    -30.00000025	     10.43734103	     11.37528216	      1.52449273	     24.22677318	      0.70443435	      0.00000000	    -18.76017958	      3.53036483	     -4.95822589	     23.12919993	     14.26490949	      6.83001762	      0.00000000	     -1.71788544	     -4.21306063	     -1.64576140	     17.40233467	      6.92739708	     18.30599650	     19.03872957	    115.28508348	     15.72623617	      7.73742075	     33.06502363	     14.81385796	    107.21207123
      9.86666670	      7.32741622	    -11.26078093	    -58.84527425	      1.64727617	      1.02366954	      4.32987992	    -30.00000025	     10.36510506	     11.21618225	      1.64444441	     24.42539347	      1.05953106	      0.00000000	    -18.72997073	      3.36783484	     -6.10663396	     23.23116203	     13.11673136	      7.17038240	      0.00000000	     -1.56709466	     -4.02363421	     -1.72275947	     17.75954128	      6.86922413	     21.46950607	     18.91898130	    115.53297947	     15.24302469	      8.18809435	     30.30720058	     14.96693653	    105.83323058
      9.88333330	      7.29537257	    -11.24613255	    -58.72064424	      1.64837985	      1.02338249	      4.33018604	    -30.00000025	     10.41340341	     11.16800876	      1.67475979	     24.51578053	      0.99087186	      0.00000000	    -18.70073325	      3.23660241	     -6.30602053	     23.27551616	     12.23443617	      7.25134283	      0.00000000	     -1.49361103	     -3.77027994	     -1.98295345	     17.88654225	      6.96661008	     21.49754346	     19.05490631	    115.50571502	     15.08757653	      8.53516855	     30.30565418	     14.88980268	    105.81179191
      9.90000000	      7.18059539	    -11.29656180	    -58.76807725	      1.64840638	      1.02329470	      4.33062907	    -30.00000025	     10.52626721	     11.17127077	      1.68374072	     24.47610690	      1.03761600	      0.00000000	    -18.55096948	      3.03074109	     -6.27454164	     23.53454048	     11.23131750	      7.26775260	      0.00000000	     -1.54964882	     -3.59441534	     -1.77892071	     18.02325813	      6.98997592	     21.56646783	     19.10909135	    115.48516076	     15.11281736	      8.84195378	     30.25601471	     14.88494130	    105.76872602
      9.91666670	      6.83311948	    -11.50635331	    -59.39465274	      1.64798168	      1.02331160	      4.33105886	    -30.00000025	     10.62800116	     11.49519181	      1.80032616	     24.45309975	      1.51552908	      0.00000000	    -18.37552714	      2.90758722	     -6.18423021	     23.82304228	     10.21800704	      5.72141610	      0.00000000	     -1.68571516	     -3.01258514	     -1.05694097	     18.24397646	      6.79798692	     22.10236660	     19.14455868	    115.35152087	     15.18907420	      9.42142293	     29.79899101	     14.69841404	    105.41436855
      9.93333330	      6.83754126	    -11.42505479	    -59.47715206	      1.64776416	      1.02325042	      4.33144053	    -30.00000025	     10.55628561	     11.46331685	      1.68632268	     24.45186784	      1.57751171	      0.00000000	    -18.03578882	      2.89016122	     -6.24039033	     24.16360361	      9.52892040	      5.55701636	      0.00000000	     -1.78863040	     -3.07965434	     -0.84034532	     18.38852615	      6.88974042	     22.25886303	     19.19755844	    115.33241662	     15.20907419	      9.61328149	     29.72318785	     14.72748463	    105.34275636
